<svg width="20" height="20" viewBox="0 0 20 20" fill="none" xmlns="http://www.w3.org/2000/svg">
<path d="M2.27539 1.52539C3.82511 -0.0243317 6.19502 0.248831 7.11035 1.88867L7.92188 3.34277C8.53249 4.43722 8.30361 5.91803 7.29004 6.93164L7.48242 7.12402C7.29367 6.93547 7.2894 6.93146 7.28906 6.93164L7.28711 6.93359C7.28614 6.93457 7.2853 6.93635 7.28418 6.9375C7.28182 6.93993 7.2784 6.9431 7.27539 6.94629C7.26945 6.9526 7.26209 6.96049 7.25391 6.96973C7.23722 6.98857 7.21635 7.01382 7.19238 7.04492C7.1444 7.1072 7.08362 7.19431 7.02344 7.30664C6.90258 7.53221 6.78226 7.85813 6.76172 8.27637C6.72001 9.1277 7.09494 10.2414 8.42676 11.5732C9.75808 12.9046 10.8713 13.2798 11.7227 13.2383C12.141 13.2178 12.4677 13.0973 12.6934 12.9766C12.8056 12.9164 12.8928 12.8555 12.9551 12.8076C12.9862 12.7836 13.0114 12.7628 13.0303 12.7461C13.0396 12.7378 13.0474 12.7306 13.0537 12.7246C13.0569 12.7216 13.0601 12.7191 13.0625 12.7168C13.0637 12.7156 13.0644 12.7139 13.0654 12.7129L13.0674 12.7119L13.0684 12.7109C13.0682 12.7101 13.0548 12.6969 12.7148 12.3564L13.0684 12.71C14.082 11.6964 15.5628 11.4675 16.6572 12.0781L18.1113 12.8896C19.7512 13.805 20.0243 16.1748 18.4746 17.7246C17.4695 18.7296 16.3007 19.4454 15.0645 19.4922C12.7945 19.5783 8.88744 19.0105 4.93848 15.0615C0.989554 11.1125 0.421802 7.20552 0.507812 4.93555C0.554678 3.6993 1.27042 2.53046 2.27539 1.52539Z" stroke="black"/>
</svg>
