<svg width="20" height="20" viewBox="0 0 20 20" fill="none" xmlns="http://www.w3.org/2000/svg">
<path d="M7.54699 1.64522L8.35825 3.09888C9.09037 4.41074 8.79647 6.13164 7.64339 7.28477C7.64339 7.28477 6.24485 8.68352 8.78063 11.2194C11.3156 13.7544 12.7152 12.3567 12.7152 12.3567C13.8684 11.2035 15.5892 10.9097 16.9011 11.6418L18.3547 12.453C20.3357 13.5585 20.5696 16.3365 18.8285 18.0778C17.7822 19.124 16.5005 19.9382 15.0836 19.9918C12.6985 20.0823 8.64785 19.4787 4.58462 15.4154C0.521414 11.3522 -0.0822349 7.30152 0.00819009 4.91637C0.0619026 3.49951 0.876002 2.21779 1.92226 1.17154C3.66345 -0.569651 6.44146 -0.3357 7.54699 1.64522Z" fill="#BA8300"/>
</svg>
