<svg width="24" height="20" viewBox="0 0 24 20" fill="none" xmlns="http://www.w3.org/2000/svg">
<path d="M16.1537 0.5C20.5544 0.5 24.1157 3.91417 24.1157 8.07715C24.1156 9.39426 23.7617 10.6445 23.1567 11.7607C22.9211 12.0624 22.9701 12.4409 23.0151 12.6211L23.018 12.6328L23.0219 12.6445L23.7846 15.166C23.7941 15.2123 23.7799 15.2537 23.7524 15.2812C23.7388 15.2949 23.727 15.2994 23.7221 15.3008C23.7199 15.3013 23.7172 15.3026 23.7094 15.2998L23.7075 15.2988L21.2455 14.4141H21.2446C20.899 14.2681 20.5836 14.3799 20.392 14.4756L20.3725 14.4854L20.3549 14.4961C20.0005 14.7127 19.6349 14.8952 19.2602 15.0469C19.5737 14.056 19.7309 12.9982 19.7309 11.9229C19.7308 7.1295 16.5058 3.04962 12.0385 1.6123C13.2468 0.912932 14.6551 0.500014 16.1537 0.5Z" stroke="#877D63"/>
<path d="M8.46191 4.34619C12.8624 4.34639 16.4229 7.76048 16.4229 11.9233C16.4227 16.0861 12.8623 19.5003 8.46191 19.5005C6.89642 19.5005 5.48398 19.1 4.25391 18.3765L4.25195 18.3784C4.10037 18.2852 3.93816 18.253 3.81348 18.2456C3.67587 18.2375 3.53775 18.2545 3.41699 18.2847L3.39258 18.2905L3.36914 18.2983L0.918945 19.1792C0.892761 19.1879 0.875938 19.1865 0.866211 19.1841C0.854872 19.1813 0.843396 19.1749 0.833984 19.1655C0.824692 19.1561 0.819191 19.1446 0.816406 19.1333C0.81405 19.1236 0.811796 19.1073 0.820312 19.0815L0.823242 19.0728L1.63086 16.4956L1.63574 16.4819L1.63867 16.4673C1.71778 16.1507 1.62808 15.868 1.52441 15.6606L1.51758 15.647L1.50977 15.6333L1.39062 15.4224C0.815545 14.3567 0.500038 13.1711 0.5 11.9233C0.5 7.76036 4.06124 4.34619 8.46191 4.34619ZM3.8457 9.88428C2.72361 9.88452 1.80762 10.8012 1.80762 11.9233C1.80774 13.0454 2.72369 13.9612 3.8457 13.9614C4.96792 13.9614 5.88464 13.0455 5.88477 11.9233C5.88477 10.801 4.968 9.88428 3.8457 9.88428ZM8.46191 9.88428C7.33962 9.88428 6.42285 10.801 6.42285 11.9233C6.42297 13.0455 7.33969 13.9614 8.46191 13.9614C9.58396 13.9612 10.4999 13.0454 10.5 11.9233C10.5 10.8012 9.58404 9.88448 8.46191 9.88428ZM13.0771 9.88428C11.9549 9.88428 11.0381 10.801 11.0381 11.9233C11.0382 13.0455 11.9549 13.9614 13.0771 13.9614C14.1993 13.9613 15.1151 13.0455 15.1152 11.9233C15.1152 10.8011 14.1993 9.8844 13.0771 9.88428Z" stroke="#877D63"/>
</svg>
