<svg width="24" height="20" viewBox="0 0 24 20" fill="none" xmlns="http://www.w3.org/2000/svg">
<path d="M23.5 12.5C23.4616 12.3462 23.4616 12.1538 23.577 12.0385C24.2308 10.8462 24.6154 9.5 24.6154 8.07692C24.6154 3.61538 20.8077 0 16.1539 0C14.1539 0 12.3077 0.692308 10.8462 1.80769C15.6539 2.84615 19.2308 7 19.2308 11.9231C19.2308 13.3077 18.9616 14.6538 18.4231 15.8462C19.1923 15.6538 19.9231 15.3462 20.6154 14.9231C20.7693 14.8462 20.9231 14.8077 21.077 14.8846L23.5385 15.7692C23.9616 15.9231 24.3847 15.5 24.2693 15.0385L23.5 12.5Z" fill="#582515"/>
<path d="M8.46154 3.84619C3.80769 3.84619 0 7.46158 0 11.9231C0 13.3462 0.384615 14.6923 1.07692 15.8847C1.15385 16.0385 1.19231 16.1923 1.15385 16.3462L0.346154 18.9231C0.192308 19.3847 0.615384 19.8077 1.07692 19.6539L3.53846 18.7693C3.69231 18.7308 3.88462 18.7308 4 18.8077C5.30769 19.577 6.80769 20 8.46154 20C13.1154 20 16.9231 16.3847 16.9231 11.9231C16.9231 7.46158 13.1154 3.84619 8.46154 3.84619ZM3.84615 13.4616C3 13.4616 2.30769 12.7693 2.30769 11.9231C2.30769 11.077 3 10.3847 3.84615 10.3847C4.69231 10.3847 5.38462 11.077 5.38462 11.9231C5.38462 12.7693 4.69231 13.4616 3.84615 13.4616ZM8.46154 13.4616C7.61538 13.4616 6.92308 12.7693 6.92308 11.9231C6.92308 11.077 7.61538 10.3847 8.46154 10.3847C9.30769 10.3847 10 11.077 10 11.9231C10 12.7693 9.30769 13.4616 8.46154 13.4616ZM13.0769 13.4616C12.2308 13.4616 11.5385 12.7693 11.5385 11.9231C11.5385 11.077 12.2308 10.3847 13.0769 10.3847C13.9231 10.3847 14.6154 11.077 14.6154 11.9231C14.6154 12.7693 13.9231 13.4616 13.0769 13.4616Z" fill="#582515"/>
</svg>
