<svg width="20" height="20" viewBox="0 0 20 20" fill="none" xmlns="http://www.w3.org/2000/svg">
<path d="M10 0.5C10.4512 0.5 10.9019 0.623724 11.5029 0.916016C12.1142 1.21329 12.8411 1.66429 13.8525 2.29199L15.8525 3.5332C16.809 4.12682 17.4956 4.55379 18.0107 4.94824C18.5167 5.33573 18.8271 5.67002 19.042 6.0625C19.2574 6.45595 19.3763 6.90581 19.4375 7.55762C19.4997 8.21954 19.5 9.05064 19.5 10.2041V11.7246C19.5 13.6885 19.4987 15.1133 19.3574 16.2002C19.2178 17.2745 18.9492 17.9435 18.4688 18.4404C17.9906 18.935 17.3509 19.2102 16.3203 19.3535C15.2735 19.4991 13.9002 19.5 12 19.5H8C6.09977 19.5 4.72651 19.4991 3.67969 19.3535C2.64909 19.2102 2.0094 18.935 1.53125 18.4404C1.05081 17.9435 0.78221 17.2745 0.642578 16.2002C0.501327 15.1133 0.5 13.6885 0.5 11.7246V10.2041C0.5 9.05064 0.500301 8.21954 0.5625 7.55762C0.623749 6.90581 0.742645 6.45595 0.958008 6.0625C1.17291 5.67003 1.48328 5.33573 1.98926 4.94824C2.50436 4.55379 3.191 4.12681 4.14746 3.5332L6.14746 2.29199C7.15886 1.66429 7.88576 1.21329 8.49707 0.916016C9.09814 0.623725 9.54882 0.5 10 0.5ZM7 14.75C6.30964 14.75 5.75 15.3097 5.75 16C5.75 16.6903 6.30964 17.25 7 17.25H13C13.6903 17.25 14.25 16.6903 14.25 16C14.25 15.3097 13.6903 14.75 13 14.75H7Z" stroke="black"/>
</svg>
