<svg width="20" height="19" viewBox="0 0 20 19" fill="none" xmlns="http://www.w3.org/2000/svg">
<path fill-rule="evenodd" clip-rule="evenodd" d="M19.4081 17.6274C17.9803 15.159 15.78 13.389 13.2122 12.5499C15.8229 10.9957 17.0735 7.88882 16.2676 4.95934C15.4616 2.02985 12.7977 -0.000109196 9.7594 -0.000109196C6.72107 -0.000109196 4.05719 2.02985 3.25122 4.95934C2.44525 7.88882 3.69585 10.9957 6.30659 12.5499C3.73877 13.3881 1.53846 15.1581 0.110649 17.6274C-0.0318971 17.8599 -0.0370734 18.1514 0.0971305 18.3887C0.231334 18.626 0.483775 18.7719 0.756424 18.7695C1.02907 18.7672 1.27897 18.6171 1.40909 18.3774C3.17534 15.3249 6.29721 13.5024 9.7594 13.5024C13.2216 13.5024 16.3435 15.3249 18.1097 18.3774C18.2398 18.6171 18.4897 18.7672 18.7624 18.7695C19.035 18.7719 19.2875 18.626 19.4217 18.3887C19.5559 18.1514 19.5507 17.8599 19.4081 17.6274ZM4.5094 6.75244C4.5094 3.85295 6.8599 1.50244 9.7594 1.50244C12.6589 1.50244 15.0094 3.85295 15.0094 6.75244C15.0094 9.65194 12.6589 12.0024 9.7594 12.0024C6.86119 11.9993 4.5125 9.65065 4.5094 6.75244Z" fill="#877D63"/>
</svg>
