<svg width="19" height="20" viewBox="0 0 19 20" fill="none" xmlns="http://www.w3.org/2000/svg">
<path d="M9.5 0.5C9.97628 0.5 10.3091 0.499957 10.5693 0.517578C10.8249 0.534908 10.9745 0.567242 11.0889 0.614258C11.4607 0.767096 11.7551 1.05997 11.9082 1.42676V1.42773C11.9659 1.56615 12 1.75315 12.0137 2.11719C12.0409 2.83287 12.413 3.51316 13.0615 3.88477C13.7096 4.25602 14.4863 4.23435 15.1211 3.90137C15.4459 3.73096 15.6277 3.66628 15.7793 3.64648C16.1787 3.59442 16.5827 3.7026 16.9014 3.94531C16.9991 4.01978 17.1017 4.13148 17.2441 4.3418C17.3894 4.55631 17.5559 4.84171 17.7939 5.25098C18.0321 5.66042 18.1979 5.94658 18.3125 6.17871C18.425 6.40674 18.4713 6.55046 18.4873 6.6709C18.5393 7.06392 18.4321 7.46194 18.1885 7.77734C18.096 7.89694 17.9493 8.02054 17.6377 8.21484C17.0294 8.5942 16.6201 9.25322 16.6201 10C16.6202 10.7467 17.0293 11.4058 17.6377 11.7852C17.9485 11.9789 18.0949 12.1023 18.1875 12.2217V12.2227C18.4314 12.5382 18.5393 12.9359 18.4873 13.3291C18.4713 13.4495 18.425 13.5933 18.3125 13.8213C18.198 14.0534 18.032 14.3388 17.7939 14.748C17.5557 15.1575 17.3894 15.4436 17.2441 15.6582C17.1017 15.8685 16.9991 15.9802 16.9014 16.0547H16.9004C16.5817 16.2973 16.1787 16.4047 15.7793 16.3525H15.7783C15.6268 16.3327 15.4456 16.2688 15.1211 16.0986C14.4863 15.7657 13.7096 15.7439 13.0615 16.1152C12.413 16.4869 12.0407 17.1671 12.0137 17.8828C11.9999 18.2472 11.966 18.4347 11.9082 18.5732C11.7551 18.94 11.4606 19.2329 11.0889 19.3857C10.9745 19.4328 10.8249 19.4651 10.5693 19.4824C10.3091 19.5 9.97628 19.5 9.5 19.5C9.02371 19.5 8.6909 19.5 8.43066 19.4824C8.17511 19.4651 8.0255 19.4327 7.91113 19.3857C7.53936 19.2329 7.24499 18.94 7.0918 18.5732C7.03398 18.4347 7.00006 18.2471 6.98633 17.8828C6.95921 17.167 6.58696 16.4869 5.93848 16.1152C5.29045 15.744 4.51379 15.7656 3.87891 16.0986C3.55396 16.269 3.37222 16.3337 3.2207 16.3535C2.82123 16.4056 2.41734 16.2974 2.09863 16.0547C2.00096 15.9803 1.89835 15.8686 1.75586 15.6582C1.6106 15.4437 1.44414 15.1583 1.20605 14.749C0.967864 14.3396 0.802069 14.0534 0.6875 13.8213C0.574961 13.5932 0.528664 13.4495 0.512695 13.3291C0.460611 12.9361 0.567786 12.5381 0.811523 12.2227C0.880841 12.133 0.98128 12.0412 1.1582 11.9189L1.3623 11.7852C1.97074 11.4058 2.37984 10.7467 2.37988 10C2.37991 9.25327 1.97072 8.59432 1.3623 8.21484C1.05081 8.0206 0.904875 7.89683 0.8125 7.77734C0.568543 7.4618 0.460611 7.06403 0.512695 6.6709C0.528662 6.55053 0.574997 6.40669 0.6875 6.17871C0.80207 5.94658 0.967853 5.66044 1.20605 5.25098C1.44416 4.84168 1.61059 4.55632 1.75586 4.3418C1.89829 4.13149 2.00095 4.0198 2.09863 3.94531C2.41747 3.7025 2.82208 3.59427 3.22168 3.64648C3.37312 3.66634 3.55432 3.73113 3.87891 3.90137C4.5137 4.23435 5.29048 4.25596 5.93848 3.88477C6.58699 3.51317 6.95925 2.8329 6.98633 2.11719C7.00006 1.75277 7.03398 1.56529 7.0918 1.42676C7.24498 1.05997 7.53935 0.76709 7.91113 0.614258C8.02549 0.567241 8.17511 0.534907 8.43066 0.517578C8.69089 0.499957 9.02371 0.5 9.5 0.5ZM9.5 6.5C7.55794 6.5 5.97754 8.06339 5.97754 10C5.97754 11.9366 7.55794 13.5 9.5 13.5C11.4421 13.5 13.0225 11.9366 13.0225 10C13.0225 8.0634 11.4421 6.50001 9.5 6.5Z" stroke="black"/>
</svg>
