<svg width="20" height="23" viewBox="0 0 20 23" fill="none" xmlns="http://www.w3.org/2000/svg">
<path fill-rule="evenodd" clip-rule="evenodd" d="M11.8724 1.13395C11.4826 0.973694 10.9884 0.973694 9.99999 0.973694C9.01157 0.973694 8.51736 0.973694 8.12757 1.13395C7.60778 1.34762 7.19482 1.75746 6.97953 2.2733C6.88124 2.50879 6.84278 2.78264 6.82773 3.1821C6.80561 3.76914 6.50226 4.31252 5.98964 4.60625C5.47702 4.89996 4.85119 4.889 4.32788 4.61449C3.97176 4.42769 3.71356 4.32382 3.45893 4.29055C2.90114 4.21767 2.33703 4.36768 1.89069 4.70759C1.55593 4.96251 1.30883 5.38727 0.814628 6.23677C0.320429 7.08629 0.0733344 7.51104 0.0182607 7.92622C-0.0551813 8.47979 0.0959764 9.03964 0.438471 9.48263C0.594797 9.68484 0.814492 9.85474 1.15547 10.0674C1.65674 10.38 1.97928 10.9125 1.97925 11.5C1.97922 12.0875 1.65669 12.6199 1.15547 12.9324C0.814439 13.1452 0.594702 13.3152 0.438366 13.5174C0.0958712 13.9603 -0.0552759 14.5201 0.0181556 15.0737C0.0732292 15.4888 0.320334 15.9137 0.814523 16.7632C1.30872 17.6126 1.55583 18.0375 1.89059 18.2923C2.33692 18.6322 2.90104 18.7822 3.45883 18.7094C3.71345 18.6761 3.97163 18.5722 4.32771 18.3855C4.85107 18.1109 5.47694 18.1 5.98959 18.3937C6.50224 18.6875 6.8056 19.2308 6.82773 19.818C6.84278 20.2174 6.88124 20.4913 6.97953 20.7267C7.19482 21.2425 7.60778 21.6524 8.12757 21.8661C8.51736 22.0263 9.01157 22.0263 9.99999 22.0263C10.9884 22.0263 11.4826 22.0263 11.8724 21.8661C12.3922 21.6524 12.8051 21.2425 13.0204 20.7267C13.1187 20.4913 13.1572 20.2174 13.1723 19.8179C13.1944 19.2308 13.4977 18.6875 14.0103 18.3937C14.5229 18.0999 15.1488 18.1109 15.6722 18.3855C16.0283 18.5722 16.2864 18.676 16.541 18.7093C17.0988 18.7822 17.6629 18.6322 18.1092 18.2923C18.4441 18.0374 18.6911 17.6126 19.1853 16.763C19.6796 15.9136 19.9266 15.4888 19.9818 15.0737C20.0551 14.5201 19.904 13.9602 19.5616 13.5173C19.4051 13.3151 19.1855 13.1451 18.8444 12.9324C18.3432 12.6199 18.0207 12.0874 18.0207 11.4999C18.0207 10.9124 18.3432 10.3801 18.8444 10.0676C19.1856 9.85484 19.4052 9.68495 19.5617 9.48263C19.9041 9.03972 20.0552 8.47987 19.9819 7.92629C19.9267 7.51111 19.6797 7.08635 19.1855 6.23685C18.6912 5.38734 18.4442 4.96258 18.1093 4.70766C17.663 4.36775 17.0989 4.21774 16.5411 4.29063C16.2865 4.32389 16.0283 4.42775 15.6723 4.61453C15.1489 4.88905 14.523 4.90003 14.0104 4.60628C13.4978 4.31254 13.1944 3.76912 13.1722 3.18205C13.1571 2.78262 13.1187 2.50878 13.0204 2.2733C12.8051 1.75746 12.3922 1.34762 11.8724 1.13395ZM9.99999 14.6579C11.7574 14.6579 13.1819 13.2441 13.1819 11.5C13.1819 9.7559 11.7574 8.34211 9.99999 8.34211C8.24262 8.34211 6.81805 9.7559 6.81805 11.5C6.81805 13.2441 8.24262 14.6579 9.99999 14.6579Z" fill="#BA8300"/>
</svg>
